<svg preserveAspectRatio="none" overflow="visible" style="display: block;" width="21.0038" height="18.75" viewBox="0 0 21.0038 18.75" fill="none" xmlns="http://www.w3.org/2000/svg">
<path id="Vector" d="M20.9932 17.0737L19.6564 5.82375C19.613 5.45721 19.436 5.11952 19.1593 4.87529C18.8825 4.63106 18.5254 4.49744 18.1564 4.5H15.0035C15.0035 3.30653 14.5294 2.16193 13.6855 1.31802C12.8416 0.474106 11.697 0 10.5035 0C9.31007 0 8.16548 0.474106 7.32156 1.31802C6.47765 2.16193 6.00354 3.30653 6.00354 4.5H2.84698C2.47789 4.49744 2.12082 4.63106 1.84407 4.87529C1.56733 5.11952 1.39034 5.45721 1.34698 5.82375L0.0101074 17.0737C-0.0143916 17.2837 0.00576748 17.4965 0.0692628 17.6981C0.132758 17.8998 0.238156 18.0857 0.378545 18.2438C0.519949 18.4025 0.693226 18.5296 0.887072 18.6168C1.08092 18.704 1.29098 18.7494 1.50354 18.75H19.496C19.7099 18.7505 19.9214 18.7056 20.1166 18.6183C20.3118 18.5311 20.4863 18.4034 20.6285 18.2438C20.7683 18.0854 20.873 17.8993 20.9358 17.6977C20.9987 17.4961 21.0182 17.2835 20.9932 17.0737ZM10.5035 1.5C11.2992 1.5 12.0623 1.81607 12.6249 2.37868C13.1875 2.94129 13.5035 3.70435 13.5035 4.5H7.50354C7.50354 3.70435 7.81962 2.94129 8.38222 2.37868C8.94483 1.81607 9.7079 1.5 10.5035 1.5Z" fill="#173F35"/>
</svg>
