<svg preserveAspectRatio="none" overflow="visible" style="display: block;" width="16.875" height="11.8169" viewBox="0 0 16.875 11.8169" fill="none" xmlns="http://www.w3.org/2000/svg">
<path id="Vector" d="M16.8342 4.28906L15.8498 1.82812C15.7663 1.61991 15.6222 1.44157 15.4362 1.3162C15.2501 1.19084 15.0307 1.12423 14.8064 1.125H12.375V0.5625C12.375 0.413316 12.3157 0.270242 12.2102 0.164753C12.1048 0.0592633 11.9617 0 11.8125 0H1.125C0.826632 0 0.540483 0.118526 0.329505 0.329505C0.118526 0.540483 0 0.826631 0 1.125V9C0 9.29837 0.118526 9.58452 0.329505 9.79549C0.540483 10.0065 0.826632 10.125 1.125 10.125H2.32031C2.44423 10.609 2.72571 11.038 3.12036 11.3443C3.51502 11.6506 4.0004 11.8169 4.5 11.8169C4.9996 11.8169 5.48498 11.6506 5.87964 11.3443C6.27429 11.038 6.55577 10.609 6.67969 10.125H10.1953C10.3192 10.609 10.6007 11.038 10.9954 11.3443C11.39 11.6506 11.8754 11.8169 12.375 11.8169C12.8746 11.8169 13.36 11.6506 13.7546 11.3443C14.1493 11.038 14.4308 10.609 14.5547 10.125H15.75C16.0484 10.125 16.3345 10.0065 16.5455 9.79549C16.7565 9.58452 16.875 9.29837 16.875 9V4.5C16.8752 4.42771 16.8613 4.35607 16.8342 4.28906ZM12.375 2.25H14.8064L15.4814 3.9375H12.375V2.25ZM1.125 1.125H11.25V5.625H1.125V1.125ZM4.5 10.6875C4.2775 10.6875 4.05999 10.6215 3.87498 10.4979C3.68998 10.3743 3.54578 10.1986 3.46064 9.99302C3.37549 9.78745 3.35321 9.56125 3.39662 9.34302C3.44003 9.12479 3.54717 8.92434 3.70451 8.76701C3.86184 8.60967 4.0623 8.50252 4.28052 8.45912C4.49875 8.41571 4.72495 8.43799 4.93052 8.52314C5.13609 8.60828 5.31179 8.75248 5.4354 8.93748C5.55902 9.12249 5.625 9.34 5.625 9.5625C5.625 9.86087 5.50647 10.147 5.2955 10.358C5.08452 10.569 4.79837 10.6875 4.5 10.6875ZM10.1953 9H6.67969C6.55577 8.51602 6.27429 8.08704 5.87964 7.7807C5.48498 7.47436 4.9996 7.30809 4.5 7.30809C4.0004 7.30809 3.51502 7.47436 3.12036 7.7807C2.72571 8.08704 2.44423 8.51602 2.32031 9H1.125V6.75H11.25V7.61555C10.9913 7.76505 10.7649 7.96441 10.5839 8.20206C10.4028 8.43971 10.2708 8.71093 10.1953 9ZM12.375 10.6875C12.1525 10.6875 11.935 10.6215 11.75 10.4979C11.565 10.3743 11.4208 10.1986 11.3356 9.99302C11.2505 9.78745 11.2282 9.56125 11.2716 9.34302C11.315 9.12479 11.4222 8.92434 11.5795 8.76701C11.7368 8.60967 11.9373 8.50252 12.1555 8.45912C12.3738 8.41571 12.6 8.43799 12.8055 8.52314C13.0111 8.60828 13.1868 8.75248 13.3104 8.93748C13.434 9.12249 13.5 9.34 13.5 9.5625C13.5 9.86087 13.3815 10.147 13.1705 10.358C12.9595 10.569 12.6734 10.6875 12.375 10.6875ZM15.75 9H14.5547C14.4293 8.51719 14.1473 8.08962 13.7528 7.78425C13.3584 7.47889 12.8738 7.31297 12.375 7.3125V5.0625H15.75V9Z" fill="#173F35"/>
</svg>
